<svg width="31" height="19" viewBox="0 0 31 19" fill="none" xmlns="http://www.w3.org/2000/svg">
<path d="M30.7238 16.4327C30.6404 16.2932 30.125 15.1732 27.6448 12.8713C25.0484 10.4609 25.3972 10.8523 28.5245 6.68442C30.4292 4.14611 31.1907 2.596 30.9524 1.93332C30.7257 1.30165 29.3248 1.46829 29.3248 1.46829L24.6667 1.49541C24.6667 1.49541 24.3218 1.44891 24.0641 1.60198C23.8141 1.75312 23.6533 2.1019 23.6533 2.1019C23.6533 2.1019 22.9151 4.06667 21.9307 5.73692C19.8555 9.26149 19.0243 9.4475 18.6852 9.22855C17.8966 8.71895 18.0942 7.17852 18.0942 6.08569C18.0942 2.66963 18.6116 1.24546 17.0847 0.877306C16.577 0.755234 16.205 0.673853 14.9087 0.660289C13.2462 0.642851 11.8376 0.666102 11.0412 1.05557C10.5103 1.31521 10.1014 1.89457 10.3514 1.92751C10.6595 1.9682 11.357 2.11546 11.7271 2.61925C12.2057 3.26836 12.1883 4.72934 12.1883 4.72934C12.1883 4.72934 12.4634 8.74995 11.5469 9.24986C10.9172 9.59283 10.0549 8.89334 8.20447 5.69429C7.25697 4.05698 6.54004 2.24528 6.54004 2.24528C6.54004 2.24528 6.40247 1.90813 6.15639 1.72793C5.85799 1.50898 5.43946 1.43922 5.43946 1.43922L1.01001 1.46635C1.01001 1.46635 0.345394 1.48573 0.101251 1.77444C-0.115765 2.03214 0.0838123 2.56306 0.0838123 2.56306C0.0838123 2.56306 3.55219 10.676 7.47786 14.7663C11.0799 18.5157 15.1684 18.2696 15.1684 18.2696H17.0208C17.0208 18.2696 17.5807 18.2076 17.8656 17.8995C18.1291 17.6166 18.1194 17.0857 18.1194 17.0857C18.1194 17.0857 18.0826 14.5997 19.2374 14.2335C20.3748 13.8731 21.8358 16.6362 23.384 17.6999C24.5543 18.5041 25.4437 18.3277 25.4437 18.3277L29.5844 18.2696C29.5844 18.2696 31.7507 18.1359 30.7238 16.4327Z" fill="white"/>
</svg>
